<?xml version="1.0" encoding="UTF-8"?>
<svg xmlns="http://www.w3.org/2000/svg" width="800.000" height="600.000" viewBox="0.0 0.0 800.000 600.000" version="1.1">
  <title>Produce by Acme CAD Converter</title>
  <desc>Produce by Acme CAD Converter</desc>
<path d="M101.7 598.3L698.3 598.3"
fill="none" stroke="black" stroke-width="0.5"/>
<path d="M698.3 598.3L698.3 1.7"
fill="none" stroke="black" stroke-width="0.5"/>
<path d="M698.3 1.7L101.7 1.7"
fill="none" stroke="black" stroke-width="0.5"/>
<path d="M101.7 1.7L101.7 598.3"
fill="none" stroke="black" stroke-width="0.5"/>
<path d="M521.5 491.08L521.47 554.11"
fill="none" stroke="black" stroke-width="0.5"/>
<path d="M521.47 554.11L522.2 558.04M522.2 558.04L523.26 561.89M523.26 561.89L524.66 565.63M524.66 565.63L526.38 569.23M526.38 569.23L528.41 572.67M528.41 572.67L530.73 575.93M530.73 575.93L533.33 578.96M533.33 578.96L536.18 581.76M536.18 581.76L539.26 584.3"
fill="none" stroke="black" stroke-width="0.5"/>
<path d="M539.26 584.3L543.92 587.01M543.92 587.01L548.75 589.41M548.75 589.41L553.72 591.47M553.72 591.47L558.83 593.2M558.83 593.2L564.04 594.58M564.04 594.58L569.33 595.61M569.33 595.61L574.68 596.28M574.68 596.28L580.05 596.59"
fill="none" stroke="black" stroke-width="0.5"/>
<path d="M580.05 596.59L596.95 596.74"
fill="none" stroke="black" stroke-width="0.5"/>
<path d="M596.95 596.74L638.15 596.59"
fill="none" stroke="black" stroke-width="0.5"/>
<path d="M638.15 596.59L643.53 596.28M643.53 596.28L648.88 595.61M648.88 595.61L654.17 594.58M654.17 594.58L659.38 593.2M659.38 593.2L664.48 591.47M664.48 591.47L669.46 589.4M669.46 589.4L674.29 587.01M674.29 587.01L678.95 584.3"
fill="none" stroke="black" stroke-width="0.5"/>
<path d="M678.95 584.3L682.03 581.76M682.03 581.76L684.88 578.96M684.88 578.96L687.48 575.92M687.48 575.92L689.8 572.67M689.8 572.67L691.83 569.23M691.83 569.23L693.55 565.63M693.55 565.63L694.94 561.88M694.94 561.88L696.01 558.03M696.01 558.03L696.74 554.11"
fill="none" stroke="black" stroke-width="0.5"/>
<path d="M696.74 554.11L696.52 489.38"
fill="none" stroke="black" stroke-width="0.5"/>
<path d="M696.52 489.38L695.04 483.76M695.04 483.76L693.18 478.24M693.18 478.24L690.96 472.87M690.96 472.87L688.39 467.65M688.39 467.65L685.48 462.62M685.48 462.62L682.24 457.79M682.24 457.79L678.69 453.18M678.69 453.18L674.84 448.82M674.84 448.82L670.71 444.73M670.71 444.73L666.31 440.92M666.31 440.92L661.68 437.41M661.68 437.41L656.82 434.21M656.82 434.21L651.76 431.35M651.76 431.35L646.52 428.82M646.52 428.82L641.12 426.65M641.12 426.65L635.59 424.85M635.59 424.85L629.96 423.41M629.96 423.41L624.24 422.35M624.24 422.35L618.46 421.67M618.46 421.67L612.65 421.38"
fill="none" stroke="black" stroke-width="0.5"/>
<path d="M612.65 421.38L605.55 421.38"
fill="none" stroke="black" stroke-width="0.5"/>
<path d="M605.55 421.38L599.66 421.67M599.66 421.67L593.8 422.36M593.8 422.36L588 423.44M588 423.44L582.29 424.92M582.29 424.92L576.69 426.77M576.69 426.77L571.23 429M571.23 429L565.93 431.6M565.93 431.6L560.82 434.54M560.82 434.54L555.92 437.83M555.92 437.83L551.26 441.44M551.26 441.44L546.85 445.36M546.85 445.36L542.71 449.56M542.71 449.56L538.87 454.04M538.87 454.04L535.34 458.76M535.34 458.76L532.14 463.72M532.14 463.72L529.28 468.88M529.28 468.88L526.77 474.22M526.77 474.22L524.63 479.72M524.63 479.72L522.87 485.35M522.87 485.35L521.5 491.08"
fill="none" stroke="black" stroke-width="0.5"/>
<path d="M531.25 489.94L531.43 489.21M531.43 489.21L531.93 488.65M531.93 488.65L532.63 488.38M532.63 488.38L533.37 488.47M533.37 488.47L533.99 488.9M533.99 488.9L534.33 489.56M534.33 489.56L534.33 490.31M534.33 490.31L533.99 490.97M533.99 490.97L533.37 491.4M533.37 491.4L532.63 491.49M532.63 491.49L531.93 491.22M531.93 491.22L531.43 490.66M531.43 490.66L531.25 489.94"
fill="none" stroke="black" stroke-width="0.5"/>
<path d="M683.83 489.93L684.01 489.21M684.01 489.21L684.5 488.65M684.5 488.65L685.2 488.38M685.2 488.38L685.95 488.47M685.95 488.47L686.56 488.9M686.56 488.9L686.91 489.56M686.91 489.56L686.91 490.31M686.91 490.31L686.56 490.97M686.56 490.97L685.95 491.4M685.95 491.4L685.2 491.49M685.2 491.49L684.5 491.22M684.5 491.22L684.01 490.66M684.01 490.66L683.83 489.93"
fill="none" stroke="black" stroke-width="0.5"/>
<path d="M607.54 431.25L607.72 430.53M607.72 430.53L608.21 429.97M608.21 429.97L608.91 429.7M608.91 429.7L609.66 429.79M609.66 429.79L610.27 430.22M610.27 430.22L610.62 430.88M610.62 430.88L610.62 431.63M610.62 431.63L610.27 432.29M610.27 432.29L609.66 432.72M609.66 432.72L608.91 432.81M608.91 432.81L608.21 432.54M608.21 432.54L607.72 431.98M607.72 431.98L607.54 431.25"
fill="none" stroke="black" stroke-width="0.5"/>
<path d="M612.65 421.38L698.3 421.38"
fill="none" stroke="red" stroke-width="0.5"/>
<path d="M521.5 509.32L517.69 509.32"
fill="none" stroke="red" stroke-width="0.5"/>
<path d="M103.26 31.82L696.74 31.82"
fill="none" stroke="black" stroke-width="0.5"/>
<path d="M696.74 31.82L696.74 59.01"
fill="none" stroke="black" stroke-width="0.5"/>
<path d="M696.74 59.01L103.26 59.01"
fill="none" stroke="black" stroke-width="0.5"/>
<path d="M103.26 59.01L103.26 31.82"
fill="none" stroke="black" stroke-width="0.5"/>
<path d="M696.74 31.82L698.3 31.82"
fill="none" stroke="red" stroke-width="0.5"/>
<path d="M103.26 31.82L101.7 31.82"
fill="none" stroke="red" stroke-width="0.5"/>
<path d="M103.26 596.74L158.15 596.74"
fill="none" stroke="black" stroke-width="0.5"/>
<path d="M158.15 596.74L158.15 65.47"
fill="none" stroke="black" stroke-width="0.5"/>
<path d="M158.15 65.47L103.26 65.47"
fill="none" stroke="black" stroke-width="0.5"/>
<path d="M103.26 65.47L103.26 596.74"
fill="none" stroke="black" stroke-width="0.5"/>
<path d="M163.28 512.01L158.15 512.01"
fill="none" stroke="red" stroke-width="0.5"/>
<path d="M447.99 421.71L384.97 421.68"
fill="none" stroke="black" stroke-width="0.5"/>
<path d="M384.97 421.68L381.04 422.41M381.04 422.41L377.19 423.48M377.19 423.48L373.45 424.88M373.45 424.88L369.84 426.6M369.84 426.6L366.4 428.62M366.4 428.62L363.15 430.94M363.15 430.94L360.11 433.54M360.11 433.54L357.31 436.39M357.31 436.39L354.78 439.48"
fill="none" stroke="black" stroke-width="0.5"/>
<path d="M354.78 439.48L352.06 444.13M352.06 444.13L349.67 448.96M349.67 448.96L347.61 453.94M347.61 453.94L345.88 459.04M345.88 459.04L344.5 464.25M344.5 464.25L343.47 469.54M343.47 469.54L342.8 474.89M342.8 474.89L342.49 480.27"
fill="none" stroke="black" stroke-width="0.5"/>
<path d="M342.49 480.27L342.34 497.16"
fill="none" stroke="black" stroke-width="0.5"/>
<path d="M342.34 497.16L342.49 538.37"
fill="none" stroke="black" stroke-width="0.5"/>
<path d="M342.49 538.37L342.8 543.75M342.8 543.75L343.47 549.09M343.47 549.09L344.5 554.38M344.5 554.38L345.88 559.59M345.88 559.59L347.61 564.7M347.61 564.7L349.67 569.67M349.67 569.67L352.07 574.5M352.07 574.5L354.78 579.16"
fill="none" stroke="black" stroke-width="0.5"/>
<path d="M354.78 579.16L357.32 582.24M357.32 582.24L360.11 585.09M360.11 585.09L363.15 587.69M363.15 587.69L366.4 590.01M366.4 590.01L369.84 592.04M369.84 592.04L373.45 593.76M373.45 593.76L377.19 595.16M377.19 595.16L381.04 596.22M381.04 596.22L384.97 596.95"
fill="none" stroke="black" stroke-width="0.5"/>
<path d="M384.97 596.95L449.7 596.74"
fill="none" stroke="black" stroke-width="0.5"/>
<path d="M449.7 596.74L455.32 595.25M455.32 595.25L460.83 593.39M460.83 593.39L466.21 591.18M466.21 591.18L471.42 588.6M471.42 588.6L476.46 585.69M476.46 585.69L481.29 582.45M481.29 582.45L485.9 578.9M485.9 578.9L490.25 575.05M490.25 575.05L494.35 570.92M494.35 570.92L498.16 566.53M498.16 566.53L501.67 561.89M501.67 561.89L504.86 557.03M504.86 557.03L507.73 551.97M507.73 551.97L510.25 546.73M510.25 546.73L512.42 541.33M512.42 541.33L514.23 535.81M514.23 535.81L515.67 530.17M515.67 530.17L516.72 524.45M516.72 524.45L517.4 518.67M517.4 518.67L517.69 512.87"
fill="none" stroke="black" stroke-width="0.5"/>
<path d="M517.69 512.87L517.69 505.77"
fill="none" stroke="black" stroke-width="0.5"/>
<path d="M517.69 505.77L517.4 499.87M517.4 499.87L516.71 494.02M516.71 494.02L515.63 488.22M515.63 488.22L514.16 482.5M514.16 482.5L512.3 476.91M512.3 476.91L510.07 471.44M510.07 471.44L507.48 466.15M507.48 466.15L504.53 461.04M504.53 461.04L501.25 456.14M501.25 456.14L497.64 451.47M497.64 451.47L493.72 447.06M493.72 447.06L489.51 442.92M489.51 442.92L485.04 439.08M485.04 439.08L480.31 435.55M480.31 435.55L475.36 432.35M475.36 432.35L470.2 429.49M470.2 429.49L464.86 426.98M464.86 426.98L459.36 424.85M459.36 424.85L453.73 423.09M453.73 423.09L447.99 421.71"
fill="none" stroke="black" stroke-width="0.5"/>
<path d="M447.58 433.03L447.75 432.3M447.75 432.3L448.25 431.74M448.25 431.74L448.95 431.48M448.95 431.48L449.69 431.57M449.69 431.57L450.31 431.99M450.31 431.99L450.66 432.65M450.66 432.65L450.66 433.4M450.66 433.4L450.31 434.07M450.31 434.07L449.69 434.49M449.69 434.49L448.95 434.58M448.95 434.58L448.25 434.32M448.25 434.32L447.75 433.76M447.75 433.76L447.58 433.03"
fill="none" stroke="black" stroke-width="0.5"/>
<path d="M447.58 585.6L447.76 584.88M447.76 584.88L448.25 584.32M448.25 584.32L448.95 584.05M448.95 584.05L449.7 584.14M449.7 584.14L450.31 584.57M450.31 584.57L450.66 585.23M450.66 585.23L450.66 585.98M450.66 585.98L450.31 586.64M450.31 586.64L449.7 587.07M449.7 587.07L448.95 587.16M448.95 587.16L448.25 586.89M448.25 586.89L447.76 586.33M447.76 586.33L447.58 585.6"
fill="none" stroke="black" stroke-width="0.5"/>
<path d="M506.26 509.32L506.44 508.59M506.44 508.59L506.93 508.03M506.93 508.03L507.63 507.76M507.63 507.76L508.38 507.85M508.38 507.85L508.99 508.28M508.99 508.28L509.34 508.94M509.34 508.94L509.34 509.69M509.34 509.69L508.99 510.35M508.99 510.35L508.38 510.78M508.38 510.78L507.63 510.87M507.63 510.87L506.93 510.6M506.93 510.6L506.44 510.04M506.44 510.04L506.26 509.32"
fill="none" stroke="black" stroke-width="0.5"/>
<path d="M342.38 509.03L338.58 509.03"
fill="none" stroke="red" stroke-width="0.5"/>
<path d="M268.88 421.43L205.85 421.4"
fill="none" stroke="black" stroke-width="0.5"/>
<path d="M205.85 421.4L201.92 422.13M201.92 422.13L198.08 423.19M198.08 423.19L194.33 424.59M194.33 424.59L190.73 426.31M190.73 426.31L187.29 428.34M187.29 428.34L184.03 430.66M184.03 430.66L181 433.26M181 433.26L178.2 436.11M178.2 436.11L175.66 439.19"
fill="none" stroke="black" stroke-width="0.5"/>
<path d="M175.66 439.19L172.95 443.85M172.95 443.85L170.56 448.68M170.56 448.68L168.49 453.65M168.49 453.65L166.76 458.76M166.76 458.76L165.38 463.97M165.38 463.97L164.35 469.26M164.35 469.26L163.68 474.61M163.68 474.61L163.37 479.99"
fill="none" stroke="black" stroke-width="0.5"/>
<path d="M163.37 479.99L163.22 496.88"
fill="none" stroke="black" stroke-width="0.5"/>
<path d="M163.22 496.88L163.37 538.08"
fill="none" stroke="black" stroke-width="0.5"/>
<path d="M163.37 538.08L163.68 543.46M163.68 543.46L164.36 548.81M164.36 548.81L165.38 554.1M165.38 554.1L166.76 559.31M166.76 559.31L168.49 564.41M168.49 564.41L170.56 569.39M170.56 569.39L172.95 574.22M172.95 574.22L175.66 578.88"
fill="none" stroke="black" stroke-width="0.5"/>
<path d="M175.66 578.88L178.2 581.96M178.2 581.96L181 584.81M181 584.81L184.04 587.41M184.04 587.41L187.29 589.73M187.29 589.73L190.73 591.76M190.73 591.76L194.33 593.48M194.33 593.48L198.08 594.87M198.08 594.87L201.93 595.94M201.93 595.94L205.85 596.67"
fill="none" stroke="black" stroke-width="0.5"/>
<path d="M205.85 596.67L270.58 596.45"
fill="none" stroke="black" stroke-width="0.5"/>
<path d="M270.58 596.45L276.21 594.97M276.21 594.97L281.72 593.11M281.72 593.11L287.09 590.89M287.09 590.89L292.31 588.32M292.31 588.32L297.35 585.41M297.35 585.41L302.18 582.17M302.18 582.17L306.78 578.62M306.78 578.62L311.14 574.77M311.14 574.77L315.23 570.64M315.23 570.64L319.04 566.24M319.04 566.24L322.55 561.61M322.55 561.61L325.75 556.75M325.75 556.75L328.62 551.69M328.62 551.69L331.14 546.45M331.14 546.45L333.31 541.05M333.31 541.05L335.12 535.52M335.12 535.52L336.55 529.89M336.55 529.89L337.61 524.17M337.61 524.17L338.29 518.39M338.29 518.39L338.58 512.58"
fill="none" stroke="black" stroke-width="0.5"/>
<path d="M338.58 512.58L338.58 505.48"
fill="none" stroke="black" stroke-width="0.5"/>
<path d="M338.58 505.48L338.29 499.59M338.29 499.59L337.6 493.73M337.6 493.73L336.52 487.93M336.52 487.93L335.04 482.22M335.04 482.22L333.19 476.62M333.19 476.62L330.96 471.16M330.96 471.16L328.36 465.86M328.36 465.86L325.42 460.75M325.42 460.75L322.13 455.85M322.13 455.85L318.52 451.19M318.52 451.19L314.61 446.78M314.61 446.78L310.4 442.64M310.4 442.64L305.92 438.8M305.92 438.8L301.2 435.27M301.2 435.27L296.24 432.07M296.24 432.07L291.08 429.21M291.08 429.21L285.74 426.7M285.74 426.7L280.25 424.56M280.25 424.56L274.62 422.8M274.62 422.8L268.88 421.43"
fill="none" stroke="black" stroke-width="0.5"/>
<path d="M268.46 432.75L268.64 432.02M268.64 432.02L269.14 431.46M269.14 431.46L269.84 431.19M269.84 431.19L270.58 431.28M270.58 431.28L271.2 431.71M271.2 431.71L271.54 432.37M271.54 432.37L271.54 433.12M271.54 433.12L271.2 433.78M271.2 433.78L270.58 434.21M270.58 434.21L269.84 434.3M269.84 434.3L269.14 434.03M269.14 434.03L268.64 433.47M268.64 433.47L268.46 432.75"
fill="none" stroke="black" stroke-width="0.5"/>
<path d="M268.46 585.32L268.64 584.59M268.64 584.59L269.14 584.03M269.14 584.03L269.84 583.77M269.84 583.77L270.58 583.86M270.58 583.86L271.2 584.28M271.2 584.28L271.55 584.95M271.55 584.95L271.55 585.7M271.55 585.7L271.2 586.36M271.2 586.36L270.58 586.78M270.58 586.78L269.84 586.87M269.84 586.87L269.14 586.61M269.14 586.61L268.64 586.05M268.64 586.05L268.46 585.32"
fill="none" stroke="black" stroke-width="0.5"/>
<path d="M327.14 509.03L327.32 508.31M327.32 508.31L327.82 507.75M327.82 507.75L328.52 507.48M328.52 507.48L329.26 507.57M329.26 507.57L329.88 508M329.88 508L330.23 508.66M330.23 508.66L330.23 509.41M330.23 509.41L329.88 510.07M329.88 510.07L329.26 510.5M329.26 510.5L328.52 510.59M328.52 510.59L327.82 510.32M327.82 510.32L327.32 509.76M327.32 509.76L327.14 509.03"
fill="none" stroke="black" stroke-width="0.5"/>
<path d="M521.5 312.2L521.47 375.23"
fill="none" stroke="black" stroke-width="0.5"/>
<path d="M521.47 375.23L522.2 379.16M522.2 379.16L523.26 383.01M523.26 383.01L524.66 386.75M524.66 386.75L526.38 390.36M526.38 390.36L528.41 393.8M528.41 393.8L530.73 397.05M530.73 397.05L533.33 400.09M533.33 400.09L536.18 402.88M536.18 402.88L539.26 405.42"
fill="none" stroke="black" stroke-width="0.5"/>
<path d="M539.26 405.42L543.92 408.13M543.92 408.13L548.75 410.53M548.75 410.53L553.72 412.59M553.72 412.59L558.83 414.32M558.83 414.32L564.04 415.7M564.04 415.7L569.33 416.73M569.33 416.73L574.68 417.4M574.68 417.4L580.05 417.71"
fill="none" stroke="black" stroke-width="0.5"/>
<path d="M580.05 417.71L596.95 417.86"
fill="none" stroke="black" stroke-width="0.5"/>
<path d="M596.95 417.86L638.15 417.71"
fill="none" stroke="black" stroke-width="0.5"/>
<path d="M638.15 417.71L643.53 417.4M643.53 417.4L648.88 416.73M648.88 416.73L654.17 415.7M654.17 415.7L659.38 414.32M659.38 414.32L664.48 412.59M664.48 412.59L669.46 410.53M669.46 410.53L674.29 408.13M674.29 408.13L678.95 405.42"
fill="none" stroke="black" stroke-width="0.5"/>
<path d="M678.95 405.42L682.03 402.88M682.03 402.88L684.88 400.08M684.88 400.08L687.48 397.05M687.48 397.05L689.8 393.8M689.8 393.8L691.83 390.35M691.83 390.35L693.55 386.75M693.55 386.75L694.94 383.01M694.94 383.01L696.01 379.16M696.01 379.16L696.74 375.23"
fill="none" stroke="black" stroke-width="0.5"/>
<path d="M696.74 375.23L696.52 310.5"
fill="none" stroke="black" stroke-width="0.5"/>
<path d="M696.52 310.5L695.04 304.88M695.04 304.88L693.18 299.37M693.18 299.37L690.96 293.99M690.96 293.99L688.39 288.77M688.39 288.77L685.48 283.74M685.48 283.74L682.24 278.91M682.24 278.91L678.69 274.3M678.69 274.3L674.84 269.94M674.84 269.94L670.71 265.85M670.71 265.85L666.31 262.04M666.31 262.04L661.68 258.53M661.68 258.53L656.82 255.33M656.82 255.33L651.76 252.47M651.76 252.47L646.52 249.94M646.52 249.94L641.12 247.77M641.12 247.77L635.59 245.97M635.59 245.97L629.96 244.53M629.96 244.53L624.24 243.47M624.24 243.47L618.46 242.8M618.46 242.8L612.65 242.5"
fill="none" stroke="black" stroke-width="0.5"/>
<path d="M612.65 242.5L605.55 242.5"
fill="none" stroke="black" stroke-width="0.5"/>
<path d="M605.55 242.5L599.66 242.79M599.66 242.79L593.8 243.48M593.8 243.48L588 244.57M588 244.57L582.29 246.04M582.29 246.04L576.69 247.89M576.69 247.89L571.23 250.12M571.23 250.12L565.93 252.72M565.93 252.72L560.82 255.67M560.82 255.67L555.92 258.95M555.92 258.95L551.26 262.56M551.26 262.56L546.85 266.48M546.85 266.48L542.71 270.68M542.71 270.68L538.87 275.16M538.87 275.16L535.34 279.89M535.34 279.89L532.14 284.84M532.14 284.84L529.28 290M529.28 290L526.77 295.34M526.77 295.34L524.63 300.84M524.63 300.84L522.87 306.47M522.87 306.47L521.5 312.2"
fill="none" stroke="black" stroke-width="0.5"/>
<path d="M531.25 311.06L531.43 310.33M531.43 310.33L531.93 309.77M531.93 309.77L532.63 309.5M532.63 309.5L533.37 309.59M533.37 309.59L533.99 310.02M533.99 310.02L534.33 310.68M534.33 310.68L534.33 311.43M534.33 311.43L533.99 312.1M533.99 312.1L533.37 312.52M533.37 312.52L532.63 312.61M532.63 312.61L531.93 312.35M531.93 312.35L531.43 311.79M531.43 311.79L531.25 311.06"
fill="none" stroke="black" stroke-width="0.5"/>
<path d="M683.83 311.06L684.01 310.33M684.01 310.33L684.5 309.77M684.5 309.77L685.2 309.5M685.2 309.5L685.95 309.59M685.95 309.59L686.56 310.02M686.56 310.02L686.91 310.68M686.91 310.68L686.91 311.43M686.91 311.43L686.56 312.09M686.56 312.09L685.95 312.52M685.95 312.52L685.2 312.61M685.2 312.61L684.5 312.34M684.5 312.34L684.01 311.78M684.01 311.78L683.83 311.06"
fill="none" stroke="black" stroke-width="0.5"/>
<path d="M607.54 252.38L607.72 251.65M607.72 251.65L608.21 251.09M608.21 251.09L608.91 250.82M608.91 250.82L609.66 250.91M609.66 250.91L610.27 251.34M610.27 251.34L610.62 252M610.62 252L610.62 252.75M610.62 252.75L610.27 253.41M610.27 253.41L609.66 253.84M609.66 253.84L608.91 253.93M608.91 253.93L608.21 253.66M608.21 253.66L607.72 253.1M607.72 253.1L607.54 252.38"
fill="none" stroke="black" stroke-width="0.5"/>
<path d="M612.65 242.5L698.3 242.5"
fill="none" stroke="red" stroke-width="0.5"/>
<path d="M521.5 330.44L517.69 330.44"
fill="none" stroke="red" stroke-width="0.5"/>
<path d="M447.99 242.83L384.97 242.81"
fill="none" stroke="black" stroke-width="0.5"/>
<path d="M384.97 242.81L381.04 243.53M381.04 243.53L377.19 244.6M377.19 244.6L373.45 246M373.45 246L369.84 247.72M369.84 247.72L366.4 249.75M366.4 249.75L363.15 252.07M363.15 252.07L360.11 254.66M360.11 254.66L357.31 257.51M357.31 257.51L354.78 260.6"
fill="none" stroke="black" stroke-width="0.5"/>
<path d="M354.78 260.6L352.06 265.25M352.06 265.25L349.67 270.08M349.67 270.08L347.61 275.06M347.61 275.06L345.88 280.17M345.88 280.17L344.5 285.37M344.5 285.37L343.47 290.66M343.47 290.66L342.8 296.01M342.8 296.01L342.49 301.39"
fill="none" stroke="black" stroke-width="0.5"/>
<path d="M342.49 301.39L342.34 318.28"
fill="none" stroke="black" stroke-width="0.5"/>
<path d="M342.34 318.28L342.49 359.49"
fill="none" stroke="black" stroke-width="0.5"/>
<path d="M342.49 359.49L342.8 364.87M342.8 364.87L343.47 370.22M343.47 370.22L344.5 375.51M344.5 375.51L345.88 380.72M345.88 380.72L347.61 385.82M347.61 385.82L349.67 390.8M349.67 390.8L352.07 395.63M352.07 395.63L354.78 400.28"
fill="none" stroke="black" stroke-width="0.5"/>
<path d="M354.78 400.28L357.32 403.37M357.32 403.37L360.11 406.22M360.11 406.22L363.15 408.81M363.15 408.81L366.4 411.13M366.4 411.13L369.84 413.16M369.84 413.16L373.45 414.88M373.45 414.88L377.19 416.28M377.19 416.28L381.04 417.35M381.04 417.35L384.97 418.07"
fill="none" stroke="black" stroke-width="0.5"/>
<path d="M384.97 418.07L449.7 417.86"
fill="none" stroke="black" stroke-width="0.5"/>
<path d="M449.7 417.86L455.32 416.37M455.32 416.37L460.83 414.52M460.83 414.52L466.21 412.3M466.21 412.3L471.42 409.73M471.42 409.73L476.46 406.82M476.46 406.82L481.29 403.58M481.29 403.58L485.9 400.02M485.9 400.02L490.25 396.17M490.25 396.17L494.35 392.04M494.35 392.04L498.16 387.65M498.16 387.65L501.67 383.01M501.67 383.01L504.86 378.15M504.86 378.15L507.73 373.09M507.73 373.09L510.25 367.85M510.25 367.85L512.42 362.46M512.42 362.46L514.23 356.93M514.23 356.93L515.67 351.29M515.67 351.29L516.72 345.57M516.72 345.57L517.4 339.8M517.4 339.8L517.69 333.99"
fill="none" stroke="black" stroke-width="0.5"/>
<path d="M517.69 333.99L517.69 326.89"
fill="none" stroke="black" stroke-width="0.5"/>
<path d="M517.69 326.89L517.4 321M517.4 321L516.71 315.14M516.71 315.14L515.63 309.34M515.63 309.34L514.16 303.63M514.16 303.63L512.3 298.03M512.3 298.03L510.07 292.57M510.07 292.57L507.48 287.27M507.48 287.27L504.53 282.16M504.53 282.16L501.25 277.26M501.25 277.26L497.64 272.59M497.64 272.59L493.72 268.18M493.72 268.18L489.51 264.05M489.51 264.05L485.04 260.2M485.04 260.2L480.31 256.67M480.31 256.67L475.36 253.47M475.36 253.47L470.2 250.61M470.2 250.61L464.86 248.11M464.86 248.11L459.36 245.97M459.36 245.97L453.73 244.21M453.73 244.21L447.99 242.83"
fill="none" stroke="black" stroke-width="0.5"/>
<path d="M447.58 254.15L447.75 253.42M447.75 253.42L448.25 252.86M448.25 252.86L448.95 252.6M448.95 252.6L449.69 252.69M449.69 252.69L450.31 253.11M450.31 253.11L450.66 253.78M450.66 253.78L450.66 254.53M450.66 254.53L450.31 255.19M450.31 255.19L449.69 255.61M449.69 255.61L448.95 255.7M448.95 255.7L448.25 255.44M448.25 255.44L447.75 254.88M447.75 254.88L447.58 254.15"
fill="none" stroke="black" stroke-width="0.5"/>
<path d="M447.58 406.73L447.76 406M447.76 406L448.25 405.44M448.25 405.44L448.95 405.17M448.95 405.17L449.7 405.26M449.7 405.26L450.31 405.69M450.31 405.69L450.66 406.35M450.66 406.35L450.66 407.1M450.66 407.1L450.31 407.76M450.31 407.76L449.7 408.19M449.7 408.19L448.95 408.28M448.95 408.28L448.25 408.01M448.25 408.01L447.76 407.45M447.76 407.45L447.58 406.73"
fill="none" stroke="black" stroke-width="0.5"/>
<path d="M506.26 330.44L506.44 329.71M506.44 329.71L506.93 329.15M506.93 329.15L507.63 328.89M507.63 328.89L508.38 328.98M508.38 328.98L508.99 329.4M508.99 329.4L509.34 330.06M509.34 330.06L509.34 330.81M509.34 330.81L508.99 331.48M508.99 331.48L508.38 331.9M508.38 331.9L507.63 331.99M507.63 331.99L506.93 331.73M506.93 331.73L506.44 331.17M506.44 331.17L506.26 330.44"
fill="none" stroke="black" stroke-width="0.5"/>
<path d="M342.38 330.16L338.58 330.16"
fill="none" stroke="red" stroke-width="0.5"/>
<path d="M268.88 242.55L205.85 242.52"
fill="none" stroke="black" stroke-width="0.5"/>
<path d="M205.85 242.52L201.92 243.25M201.92 243.25L198.08 244.32M198.08 244.32L194.33 245.72M194.33 245.72L190.73 247.44M190.73 247.44L187.29 249.46M187.29 249.46L184.03 251.78M184.03 251.78L181 254.38M181 254.38L178.2 257.23M178.2 257.23L175.66 260.32"
fill="none" stroke="black" stroke-width="0.5"/>
<path d="M175.66 260.32L172.95 264.97M172.95 264.97L170.56 269.8M170.56 269.8L168.49 274.78M168.49 274.78L166.76 279.88M166.76 279.88L165.38 285.09M165.38 285.09L164.35 290.38M164.35 290.38L163.68 295.73M163.68 295.73L163.37 301.11"
fill="none" stroke="black" stroke-width="0.5"/>
<path d="M163.37 301.11L163.22 318"
fill="none" stroke="black" stroke-width="0.5"/>
<path d="M163.22 318L163.37 359.21"
fill="none" stroke="black" stroke-width="0.5"/>
<path d="M163.37 359.21L163.68 364.59M163.68 364.59L164.36 369.93M164.36 369.93L165.38 375.22M165.38 375.22L166.76 380.43M166.76 380.43L168.49 385.54M168.49 385.54L170.56 390.51M170.56 390.51L172.95 395.34M172.95 395.34L175.66 400"
fill="none" stroke="black" stroke-width="0.5"/>
<path d="M175.66 400L178.2 403.08M178.2 403.08L181 405.93M181 405.93L184.04 408.53M184.04 408.53L187.29 410.85M187.29 410.85L190.73 412.88M190.73 412.88L194.33 414.6M194.33 414.6L198.08 416M198.08 416L201.93 417.06M201.93 417.06L205.85 417.79"
fill="none" stroke="black" stroke-width="0.5"/>
<path d="M205.85 417.79L270.58 417.58"
fill="none" stroke="black" stroke-width="0.5"/>
<path d="M270.58 417.58L276.21 416.09M276.21 416.09L281.72 414.23M281.72 414.23L287.09 412.01M287.09 412.01L292.31 409.44M292.31 409.44L297.35 406.53M297.35 406.53L302.18 403.29M302.18 403.29L306.78 399.74M306.78 399.74L311.14 395.89M311.14 395.89L315.23 391.76M315.23 391.76L319.04 387.37M319.04 387.37L322.55 382.73M322.55 382.73L325.75 377.87M325.75 377.87L328.62 372.81M328.62 372.81L331.14 367.57M331.14 367.57L333.31 362.17M333.31 362.17L335.12 356.64M335.12 356.64L336.55 351.01M336.55 351.01L337.61 345.29M337.61 345.29L338.29 339.51M338.29 339.51L338.58 333.71"
fill="none" stroke="black" stroke-width="0.5"/>
<path d="M338.58 333.71L338.58 326.61"
fill="none" stroke="black" stroke-width="0.5"/>
<path d="M338.58 326.61L338.29 320.71M338.29 320.71L337.6 314.86M337.6 314.86L336.52 309.06M336.52 309.06L335.04 303.34M335.04 303.34L333.19 297.74M333.19 297.74L330.96 292.28M330.96 292.28L328.36 286.99M328.36 286.99L325.42 281.88M325.42 281.88L322.13 276.98M322.13 276.98L318.52 272.31M318.52 272.31L314.61 267.9M314.61 267.9L310.4 263.76M310.4 263.76L305.92 259.92M305.92 259.92L301.2 256.39M301.2 256.39L296.24 253.19M296.24 253.19L291.08 250.33M291.08 250.33L285.74 247.82M285.74 247.82L280.25 245.69M280.25 245.69L274.62 243.92M274.62 243.92L268.88 242.55"
fill="none" stroke="black" stroke-width="0.5"/>
<path d="M268.46 253.87L268.64 253.14M268.64 253.14L269.14 252.58M269.14 252.58L269.84 252.31M269.84 252.31L270.58 252.41M270.58 252.41L271.2 252.83M271.2 252.83L271.54 253.49M271.54 253.49L271.54 254.24M271.54 254.24L271.2 254.91M271.2 254.91L270.58 255.33M270.58 255.33L269.84 255.42M269.84 255.42L269.14 255.16M269.14 255.16L268.64 254.6M268.64 254.6L268.46 253.87"
fill="none" stroke="black" stroke-width="0.5"/>
<path d="M268.46 406.44L268.64 405.72M268.64 405.72L269.14 405.16M269.14 405.16L269.84 404.89M269.84 404.89L270.58 404.98M270.58 404.98L271.2 405.41M271.2 405.41L271.55 406.07M271.55 406.07L271.55 406.82M271.55 406.82L271.2 407.48M271.2 407.48L270.58 407.91M270.58 407.91L269.84 408M269.84 408L269.14 407.73M269.14 407.73L268.64 407.17M268.64 407.17L268.46 406.44"
fill="none" stroke="black" stroke-width="0.5"/>
<path d="M327.14 330.16L327.32 329.43M327.32 329.43L327.82 328.87M327.82 328.87L328.52 328.6M328.52 328.6L329.26 328.69M329.26 328.69L329.88 329.12M329.88 329.12L330.23 329.78M330.23 329.78L330.23 330.53M330.23 330.53L329.88 331.19M329.88 331.19L329.26 331.62M329.26 331.62L328.52 331.71M328.52 331.71L327.82 331.44M327.82 331.44L327.32 330.88M327.32 330.88L327.14 330.16"
fill="none" stroke="black" stroke-width="0.5"/>
<path d="M521.5 133.33L521.47 196.35"
fill="none" stroke="black" stroke-width="0.5"/>
<path d="M521.47 196.35L522.2 200.28M522.2 200.28L523.26 204.13M523.26 204.13L524.66 207.87M524.66 207.87L526.38 211.48M526.38 211.48L528.41 214.92M528.41 214.92L530.73 218.17M530.73 218.17L533.33 221.21M533.33 221.21L536.18 224.01M536.18 224.01L539.26 226.54"
fill="none" stroke="black" stroke-width="0.5"/>
<path d="M539.26 226.54L543.92 229.26M543.92 229.26L548.75 231.65M548.75 231.65L553.72 233.72M553.72 233.72L558.83 235.44M558.83 235.44L564.04 236.82M564.04 236.82L569.33 237.85M569.33 237.85L574.68 238.52M574.68 238.52L580.05 238.84"
fill="none" stroke="black" stroke-width="0.5"/>
<path d="M580.05 238.84L596.95 238.98"
fill="none" stroke="black" stroke-width="0.5"/>
<path d="M596.95 238.98L638.15 238.83"
fill="none" stroke="black" stroke-width="0.5"/>
<path d="M638.15 238.83L643.53 238.52M643.53 238.52L648.88 237.85M648.88 237.85L654.17 236.82M654.17 236.82L659.38 235.44M659.38 235.44L664.48 233.71M664.48 233.71L669.46 231.65M669.46 231.65L674.29 229.26M674.29 229.26L678.95 226.54"
fill="none" stroke="black" stroke-width="0.5"/>
<path d="M678.95 226.54L682.03 224M682.03 224L684.88 221.21M684.88 221.21L687.48 218.17M687.48 218.17L689.8 214.92M689.8 214.92L691.83 211.48M691.83 211.48L693.55 207.87M693.55 207.87L694.94 204.13M694.94 204.13L696.01 200.28M696.01 200.28L696.74 196.35"
fill="none" stroke="black" stroke-width="0.5"/>
<path d="M696.74 196.35L696.52 131.62"
fill="none" stroke="black" stroke-width="0.5"/>
<path d="M696.52 131.62L695.04 126M695.04 126L693.18 120.49M693.18 120.49L690.96 115.11M690.96 115.11L688.39 109.9M688.39 109.9L685.48 104.86M685.48 104.86L682.24 100.03M682.24 100.03L678.69 95.43M678.69 95.43L674.84 91.07M674.84 91.07L670.71 86.97M670.71 86.97L666.31 83.16M666.31 83.16L661.68 79.65M661.68 79.65L656.82 76.46M656.82 76.46L651.76 73.59M651.76 73.59L646.52 71.07M646.52 71.07L641.12 68.9M641.12 68.9L635.59 67.09M635.59 67.09L629.96 65.65M629.96 65.65L624.24 64.6M624.24 64.6L618.46 63.92M618.46 63.92L612.65 63.63"
fill="none" stroke="black" stroke-width="0.5"/>
<path d="M612.65 63.63L605.55 63.63"
fill="none" stroke="black" stroke-width="0.5"/>
<path d="M605.55 63.63L599.66 63.92M599.66 63.92L593.8 64.61M593.8 64.61L588 65.69M588 65.69L582.29 67.16M582.29 67.16L576.69 69.02M576.69 69.02L571.23 71.25M571.23 71.25L565.93 73.84M565.93 73.84L560.82 76.79M560.82 76.79L555.92 80.07M555.92 80.07L551.26 83.68M551.26 83.68L546.85 87.6M546.85 87.6L542.71 91.81M542.71 91.81L538.87 96.28M538.87 96.28L535.34 101.01M535.34 101.01L532.14 105.96M532.14 105.96L529.28 111.12M529.28 111.12L526.77 116.46M526.77 116.46L524.63 121.96M524.63 121.96L522.87 127.59M522.87 127.59L521.5 133.33"
fill="none" stroke="black" stroke-width="0.5"/>
<path d="M531.25 132.18L531.43 131.45M531.43 131.45L531.93 130.89M531.93 130.89L532.63 130.63M532.63 130.63L533.37 130.72M533.37 130.72L533.99 131.14M533.99 131.14L534.33 131.81M534.33 131.81L534.33 132.56M534.33 132.56L533.99 133.22M533.99 133.22L533.37 133.64M533.37 133.64L532.63 133.73M532.63 133.73L531.93 133.47M531.93 133.47L531.43 132.91M531.43 132.91L531.25 132.18"
fill="none" stroke="black" stroke-width="0.5"/>
<path d="M683.83 132.18L684.01 131.45M684.01 131.45L684.5 130.89M684.5 130.89L685.2 130.63M685.2 130.63L685.95 130.72M685.95 130.72L686.56 131.14M686.56 131.14L686.91 131.8M686.91 131.8L686.91 132.55M686.91 132.55L686.56 133.22M686.56 133.22L685.95 133.64M685.95 133.64L685.2 133.73M685.2 133.73L684.5 133.47M684.5 133.47L684.01 132.91M684.01 132.91L683.83 132.18"
fill="none" stroke="black" stroke-width="0.5"/>
<path d="M607.54 73.5L607.72 72.77M607.72 72.77L608.21 72.21M608.21 72.21L608.91 71.94M608.91 71.94L609.66 72.04M609.66 72.04L610.27 72.46M610.27 72.46L610.62 73.12M610.62 73.12L610.62 73.87M610.62 73.87L610.27 74.54M610.27 74.54L609.66 74.96M609.66 74.96L608.91 75.05M608.91 75.05L608.21 74.79M608.21 74.79L607.72 74.23M607.72 74.23L607.54 73.5"
fill="none" stroke="black" stroke-width="0.5"/>
<path d="M612.65 63.63L698.3 63.63"
fill="none" stroke="red" stroke-width="0.5"/>
<path d="M521.5 151.56L517.69 151.56"
fill="none" stroke="red" stroke-width="0.5"/>
<path d="M447.99 63.95L384.97 63.93"
fill="none" stroke="black" stroke-width="0.5"/>
<path d="M384.97 63.93L381.04 64.66M381.04 64.66L377.19 65.72M377.19 65.72L373.45 67.12M373.45 67.12L369.84 68.84M369.84 68.84L366.4 70.87M366.4 70.87L363.15 73.19M363.15 73.19L360.11 75.79M360.11 75.79L357.31 78.64M357.31 78.64L354.78 81.72"
fill="none" stroke="black" stroke-width="0.5"/>
<path d="M354.78 81.72L352.06 86.38M352.06 86.38L349.67 91.21M349.67 91.21L347.61 96.18M347.61 96.18L345.88 101.29M345.88 101.29L344.5 106.5M344.5 106.5L343.47 111.79M343.47 111.79L342.8 117.13M342.8 117.13L342.49 122.51"
fill="none" stroke="black" stroke-width="0.5"/>
<path d="M342.49 122.51L342.34 139.41"
fill="none" stroke="black" stroke-width="0.5"/>
<path d="M342.34 139.41L342.49 180.61"
fill="none" stroke="black" stroke-width="0.5"/>
<path d="M342.49 180.61L342.8 185.99M342.8 185.99L343.47 191.34M343.47 191.34L344.5 196.63M344.5 196.63L345.88 201.84M345.88 201.84L347.61 206.94M347.61 206.94L349.67 211.92M349.67 211.92L352.07 216.75M352.07 216.75L354.78 221.41"
fill="none" stroke="black" stroke-width="0.5"/>
<path d="M354.78 221.41L357.32 224.49M357.32 224.49L360.11 227.34M360.11 227.34L363.15 229.94M363.15 229.94L366.4 232.26M366.4 232.26L369.84 234.28M369.84 234.28L373.45 236M373.45 236L377.19 237.4M377.19 237.4L381.04 238.47M381.04 238.47L384.97 239.2"
fill="none" stroke="black" stroke-width="0.5"/>
<path d="M384.97 239.2L449.7 238.98"
fill="none" stroke="black" stroke-width="0.5"/>
<path d="M449.7 238.98L455.32 237.5M455.32 237.5L460.83 235.64M460.83 235.64L466.21 233.42M466.21 233.42L471.42 230.85M471.42 230.85L476.46 227.94M476.46 227.94L481.29 224.7M481.29 224.7L485.9 221.15M485.9 221.15L490.25 217.3M490.25 217.3L494.35 213.17M494.35 213.17L498.16 208.77M498.16 208.77L501.67 204.14M501.67 204.14L504.86 199.28M504.86 199.28L507.73 194.21M507.73 194.21L510.25 188.97M510.25 188.97L512.42 183.58M512.42 183.58L514.23 178.05M514.23 178.05L515.67 172.41M515.67 172.41L516.72 166.7M516.72 166.7L517.4 160.92M517.4 160.92L517.69 155.11"
fill="none" stroke="black" stroke-width="0.5"/>
<path d="M517.69 155.11L517.69 148.01"
fill="none" stroke="black" stroke-width="0.5"/>
<path d="M517.69 148.01L517.4 142.12M517.4 142.12L516.71 136.26M516.71 136.26L515.63 130.46M515.63 130.46L514.16 124.75M514.16 124.75L512.3 119.15M512.3 119.15L510.07 113.69M510.07 113.69L507.48 108.39M507.48 108.39L504.53 103.28M504.53 103.28L501.25 98.38M501.25 98.38L497.64 93.72M497.64 93.72L493.72 89.31M493.72 89.31L489.51 85.17M489.51 85.17L485.04 81.33M485.04 81.33L480.31 77.8M480.31 77.8L475.36 74.59M475.36 74.59L470.2 71.73M470.2 71.73L464.86 69.23M464.86 69.23L459.36 67.09M459.36 67.09L453.73 65.33M453.73 65.33L447.99 63.95"
fill="none" stroke="black" stroke-width="0.5"/>
<path d="M447.58 75.27L447.75 74.55M447.75 74.55L448.25 73.99M448.25 73.99L448.95 73.72M448.95 73.72L449.69 73.81M449.69 73.81L450.31 74.24M450.31 74.24L450.66 74.9M450.66 74.9L450.66 75.65M450.66 75.65L450.31 76.31M450.31 76.31L449.69 76.74M449.69 76.74L448.95 76.83M448.95 76.83L448.25 76.56M448.25 76.56L447.75 76M447.75 76L447.58 75.27"
fill="none" stroke="black" stroke-width="0.5"/>
<path d="M447.58 227.85L447.76 227.12M447.76 227.12L448.25 226.56M448.25 226.56L448.95 226.3M448.95 226.3L449.7 226.39M449.7 226.39L450.31 226.81M450.31 226.81L450.66 227.48M450.66 227.48L450.66 228.22M450.66 228.22L450.31 228.89M450.31 228.89L449.7 229.31M449.7 229.31L448.95 229.4M448.95 229.4L448.25 229.14M448.25 229.14L447.76 228.58M447.76 228.58L447.58 227.85"
fill="none" stroke="black" stroke-width="0.5"/>
<path d="M506.26 151.56L506.44 150.83M506.44 150.83L506.93 150.27M506.93 150.27L507.63 150.01M507.63 150.01L508.38 150.1M508.38 150.1L508.99 150.52M508.99 150.52L509.34 151.19M509.34 151.19L509.34 151.94M509.34 151.94L508.99 152.6M508.99 152.6L508.38 153.02M508.38 153.02L507.63 153.11M507.63 153.11L506.93 152.85M506.93 152.85L506.44 152.29M506.44 152.29L506.26 151.56"
fill="none" stroke="black" stroke-width="0.5"/>
<path d="M342.38 151.28L338.58 151.28"
fill="none" stroke="red" stroke-width="0.5"/>
<path d="M268.88 63.67L205.85 63.65"
fill="none" stroke="black" stroke-width="0.5"/>
<path d="M205.85 63.65L201.92 64.37M201.92 64.37L198.08 65.44M198.08 65.44L194.33 66.84M194.33 66.84L190.73 68.56M190.73 68.56L187.29 70.59M187.29 70.59L184.03 72.91M184.03 72.91L181 75.5M181 75.5L178.2 78.35M178.2 78.35L175.66 81.44"
fill="none" stroke="black" stroke-width="0.5"/>
<path d="M175.66 81.44L172.95 86.09M172.95 86.09L170.56 90.92M170.56 90.92L168.49 95.9M168.49 95.9L166.76 101.01M166.76 101.01L165.38 106.21M165.38 106.21L164.35 111.5M164.35 111.5L163.68 116.85M163.68 116.85L163.37 122.23"
fill="none" stroke="black" stroke-width="0.5"/>
<path d="M163.37 122.23L163.22 139.12"
fill="none" stroke="black" stroke-width="0.5"/>
<path d="M163.22 139.12L163.37 180.33"
fill="none" stroke="black" stroke-width="0.5"/>
<path d="M163.37 180.33L163.68 185.71M163.68 185.71L164.36 191.06M164.36 191.06L165.38 196.35M165.38 196.35L166.76 201.55M166.76 201.55L168.49 206.66M168.49 206.66L170.56 211.64M170.56 211.64L172.95 216.47M172.95 216.47L175.66 221.12"
fill="none" stroke="black" stroke-width="0.5"/>
<path d="M175.66 221.12L178.2 224.21M178.2 224.21L181 227.06M181 227.06L184.04 229.65M184.04 229.65L187.29 231.97M187.29 231.97L190.73 234M190.73 234L194.33 235.72M194.33 235.72L198.08 237.12M198.08 237.12L201.93 238.19M201.93 238.19L205.85 238.91"
fill="none" stroke="black" stroke-width="0.5"/>
<path d="M205.85 238.91L270.58 238.7"
fill="none" stroke="black" stroke-width="0.5"/>
<path d="M270.58 238.7L276.21 237.21M276.21 237.21L281.72 235.36M281.72 235.36L287.09 233.14M287.09 233.14L292.31 230.57M292.31 230.57L297.35 227.66M297.35 227.66L302.18 224.42M302.18 224.42L306.78 220.86M306.78 220.86L311.14 217.01M311.14 217.01L315.23 212.88M315.23 212.88L319.04 208.49M319.04 208.49L322.55 203.85M322.55 203.85L325.75 198.99M325.75 198.99L328.62 193.93M328.62 193.93L331.14 188.69M331.14 188.69L333.31 183.3M333.31 183.3L335.12 177.77M335.12 177.77L336.55 172.13M336.55 172.13L337.61 166.41M337.61 166.41L338.29 160.64M338.29 160.64L338.58 154.83"
fill="none" stroke="black" stroke-width="0.5"/>
<path d="M338.58 154.83L338.58 147.73"
fill="none" stroke="black" stroke-width="0.5"/>
<path d="M338.58 147.73L338.29 141.84M338.29 141.84L337.6 135.98M337.6 135.98L336.52 130.18M336.52 130.18L335.04 124.47M335.04 124.47L333.19 118.87M333.19 118.87L330.96 113.41M330.96 113.41L328.36 108.11M328.36 108.11L325.42 103M325.42 103L322.13 98.1M322.13 98.1L318.52 93.43M318.52 93.43L314.61 89.02M314.61 89.02L310.4 84.89M310.4 84.89L305.92 81.04M305.92 81.04L301.2 77.51M301.2 77.51L296.24 74.31M296.24 74.31L291.08 71.45M291.08 71.45L285.74 68.95M285.74 68.95L280.25 66.81M280.25 66.81L274.62 65.05M274.62 65.05L268.88 63.67"
fill="none" stroke="black" stroke-width="0.5"/>
<path d="M268.46 74.99L268.64 74.26M268.64 74.26L269.14 73.7M269.14 73.7L269.84 73.44M269.84 73.44L270.58 73.53M270.58 73.53L271.2 73.95M271.2 73.95L271.54 74.62M271.54 74.62L271.54 75.37M271.54 75.37L271.2 76.03M271.2 76.03L270.58 76.45M270.58 76.45L269.84 76.54M269.84 76.54L269.14 76.28M269.14 76.28L268.64 75.72M268.64 75.72L268.46 74.99"
fill="none" stroke="black" stroke-width="0.5"/>
<path d="M268.46 227.57L268.64 226.84M268.64 226.84L269.14 226.28M269.14 226.28L269.84 226.01M269.84 226.01L270.58 226.1M270.58 226.1L271.2 226.53M271.2 226.53L271.55 227.19M271.55 227.19L271.55 227.94M271.55 227.94L271.2 228.6M271.2 228.6L270.58 229.03M270.58 229.03L269.84 229.12M269.84 229.12L269.14 228.85M269.14 228.85L268.64 228.29M268.64 228.29L268.46 227.57"
fill="none" stroke="black" stroke-width="0.5"/>
<path d="M327.14 151.28L327.32 150.55M327.32 150.55L327.82 149.99M327.82 149.99L328.52 149.72M328.52 149.72L329.26 149.82M329.26 149.82L329.88 150.24M329.88 150.24L330.23 150.9M330.23 150.9L330.23 151.65M330.23 151.65L329.88 152.32M329.88 152.32L329.26 152.74M329.26 152.74L328.52 152.83M328.52 152.83L327.82 152.57M327.82 152.57L327.32 152.01M327.32 152.01L327.14 151.28"
fill="none" stroke="black" stroke-width="0.5"/>
</svg>
