<?xml version="1.0" encoding="UTF-8" standalone="yes"?>
<!-- Created with sK1/UniConvertor (http://sk1project.org/) -->
<svg xmlns="http://www.w3.org/2000/svg" xmlns:xlink="http://www.w3.org/1999/xlink"
  width="595.276pt" height="841.89pt" viewBox="0 0 595.276 841.89"
  fill-rule="evenodd">
<g>
<path style="stroke:#007dff; stroke-width:0.850394; stroke-linejoin:round; stroke-linecap:round; fill:none" d="M 4.47579e-05 841.89L 564.454 841.89"/>
<path style="stroke:#007dff; stroke-width:0.850394; stroke-linejoin:round; stroke-linecap:round; fill:none" d="M 564.454 841.89L 564.454 89.2847"/>
<path style="stroke:#007dff; stroke-width:0.850394; stroke-linejoin:round; stroke-linecap:round; fill:none" d="M 564.454 89.2847L 4.47579e-05 89.2847"/>
<path style="stroke:#007dff; stroke-width:0.850394; stroke-linejoin:round; stroke-linecap:round; fill:none" d="M 4.47579e-05 89.2847L 4.47579e-05 841.89"/>
<path style="stroke:#000000; stroke-width:0.850394; stroke-linejoin:round; stroke-linecap:round; fill:none" d="M 4.47579e-05 841.89L 75.2605 841.89"/>
<path style="stroke:#000000; stroke-width:0.850394; stroke-linejoin:round; stroke-linecap:round; fill:none" d="M 75.2605 841.89L 75.2605 89.2847"/>
<path style="stroke:#000000; stroke-width:0.850394; stroke-linejoin:round; stroke-linecap:round; fill:none" d="M 75.2605 89.2847L 4.47579e-05 89.2847"/>
<path style="stroke:#000000; stroke-width:0.850394; stroke-linejoin:round; stroke-linecap:round; fill:none" d="M 4.47579e-05 89.2847L 4.47579e-05 841.89"/>
<path style="stroke:#000000; stroke-width:0.850394; stroke-linejoin:round; stroke-linecap:round; fill:none" d="M 564.454 89.2847L 154.553 89.2847"/>
<path style="stroke:#000000; stroke-width:0.850394; stroke-linejoin:round; stroke-linecap:round; fill:none" d="M 154.553 89.2847L 154.553 499.186"/>
<path style="stroke:#000000; stroke-width:0.850394; stroke-linejoin:round; stroke-linecap:round; fill:none" d="M 154.553 499.186L 564.454 499.186"/>
<path style="stroke:#000000; stroke-width:0.850394; stroke-linejoin:round; stroke-linecap:round; fill:none" d="M 564.454 499.186L 564.454 89.2847"/>
<path style="stroke:#000000; stroke-width:0.850394; stroke-linejoin:round; stroke-linecap:round; fill:none" d="M 75.2605 89.2847L 154.553 89.2847"/>
<path style="stroke:#000000; stroke-width:0.850394; stroke-linejoin:round; stroke-linecap:round; fill:none" d="M 154.553 89.2847L 154.553 499.186"/>
<path style="stroke:#000000; stroke-width:0.850394; stroke-linejoin:round; stroke-linecap:round; fill:none" d="M 154.553 499.186L 75.2605 499.186"/>
<path style="stroke:#000000; stroke-width:0.850394; stroke-linejoin:round; stroke-linecap:round; fill:none" d="M 75.2605 499.186L 75.2605 89.2847"/>
<path style="stroke:#000000; stroke-width:0.850394; stroke-linejoin:round; stroke-linecap:round; fill:none" d="M 75.2605 499.186L 319.857 499.186"/>
<path style="stroke:#000000; stroke-width:0.850394; stroke-linejoin:round; stroke-linecap:round; fill:none" d="M 319.857 499.186L 75.2605 499.186"/>
<path style="stroke:#000000; stroke-width:0.850394; stroke-linejoin:round; stroke-linecap:round; fill:none" d="M 75.2605 499.186L 75.2605 841.89"/>
<path style="stroke:#000000; stroke-width:0.850394; stroke-linejoin:round; stroke-linecap:round; fill:none" d="M 75.2605 841.89L 319.857 841.89"/>
<path style="stroke:#000000; stroke-width:0.850394; stroke-linejoin:round; stroke-linecap:round; fill:none" d="M 319.857 841.89L 319.857 499.186"/>
<path style="stroke:#000000; stroke-width:0.850394; stroke-linejoin:round; stroke-linecap:round; fill:none" d="M 319.857 841.89L 564.454 841.89"/>
<path style="stroke:#000000; stroke-width:0.850394; stroke-linejoin:round; stroke-linecap:round; fill:none" d="M 564.454 841.89L 564.454 499.186"/>
<path style="stroke:#000000; stroke-width:0.850394; stroke-linejoin:round; stroke-linecap:round; fill:none" d="M 564.454 499.186L 319.857 499.186"/>
<path style="stroke:#000000; stroke-width:0.850394; stroke-linejoin:round; stroke-linecap:round; fill:none" d="M 319.857 499.186L 319.857 841.89"/>
<path style="stroke:#000000; stroke-width:0.850394; stroke-linejoin:round; stroke-linecap:round; fill:none" d="M 297.906 434.31C 297.906 430.6 294.896 427.59 291.186 427.59C 287.477 427.59 284.467 430.6 284.467 434.31C 284.467 438.019 287.477 441.029 291.186 441.029C 294.896 441.029 297.906 438.019 297.906 434.31z"/>
<path style="stroke:#000000; stroke-width:0.850394; stroke-linejoin:round; stroke-linecap:round; fill:none" d="M 297.906 337.612C 297.906 333.903 294.896 330.892 291.186 330.892C 287.477 330.892 284.467 333.903 284.467 337.612C 284.467 341.321 287.477 344.331 291.186 344.331C 294.896 344.331 297.906 341.321 297.906 337.612z"/>
<path style="stroke:#000000; stroke-width:0.850394; stroke-linejoin:round; stroke-linecap:round; fill:none" d="M 434.54 434.28C 434.54 430.571 431.529 427.56 427.82 427.56C 424.111 427.56 421.1 430.571 421.1 434.28C 421.1 437.989 424.111 441 427.82 441C 431.529 441 434.54 437.989 434.54 434.28z"/>
<path style="stroke:#000000; stroke-width:0.850394; stroke-linejoin:round; stroke-linecap:round; fill:none" d="M 434.54 337.612C 434.54 333.903 431.529 330.892 427.82 330.892C 424.111 330.892 421.1 333.903 421.1 337.612C 421.1 341.321 424.111 344.331 427.82 344.331C 431.529 344.331 434.54 341.321 434.54 337.612z"/>
<path style="stroke:#000000; stroke-width:0.850394; stroke-linejoin:round; stroke-linecap:round; fill:none" d="M 297.906 229.359C 297.906 225.65 294.896 222.639 291.186 222.639C 287.477 222.639 284.467 225.65 284.467 229.359C 284.467 233.068 287.477 236.079 291.186 236.079C 294.896 236.079 297.906 233.068 297.906 229.359z"/>
<path style="stroke:#000000; stroke-width:0.850394; stroke-linejoin:round; stroke-linecap:round; fill:none" d="M 297.906 132.661C 297.906 128.952 294.896 125.942 291.186 125.942C 287.477 125.942 284.467 128.952 284.467 132.661C 284.467 136.37 287.477 139.381 291.186 139.381C 294.896 139.381 297.906 136.37 297.906 132.661z"/>
<path style="stroke:#000000; stroke-width:0.850394; stroke-linejoin:round; stroke-linecap:round; fill:none" d="M 434.54 229.33C 434.54 225.62 431.529 222.61 427.82 222.61C 424.111 222.61 421.1 225.62 421.1 229.33C 421.1 233.039 424.111 236.049 427.82 236.049C 431.529 236.049 434.54 233.039 434.54 229.33z"/>
<path style="stroke:#000000; stroke-width:0.850394; stroke-linejoin:round; stroke-linecap:round; fill:none" d="M 434.54 132.661C 434.54 128.952 431.529 125.942 427.82 125.942C 424.111 125.942 421.1 128.952 421.1 132.661C 421.1 136.37 424.111 139.381 427.82 139.381C 431.529 139.381 434.54 136.37 434.54 132.661z"/>
<path style="stroke:#000000; stroke-width:0.850394; stroke-linejoin:round; stroke-linecap:round; fill:none" d="M 154.553 294.235L 564.454 294.235"/>
<path style="stroke:#000000; stroke-width:0.850394; stroke-linejoin:round; stroke-linecap:round; fill:none" d="M 204.279 567.727C 204.279 564.017 201.268 561.007 197.559 561.007C 193.85 561.007 190.839 564.017 190.839 567.727C 190.839 571.436 193.85 574.446 197.559 574.446C 201.268 574.446 204.279 571.436 204.279 567.727z"/>
<path style="stroke:#000000; stroke-width:0.850394; stroke-linejoin:round; stroke-linecap:round; fill:none" d="M 204.279 636.267C 204.279 632.558 201.268 629.548 197.559 629.548C 193.85 629.548 190.839 632.558 190.839 636.267C 190.839 639.976 193.85 642.987 197.559 642.987C 201.268 642.987 204.279 639.976 204.279 636.267z"/>
<path style="stroke:#000000; stroke-width:0.850394; stroke-linejoin:round; stroke-linecap:round; fill:none" d="M 204.279 704.808C 204.279 701.099 201.268 698.088 197.559 698.088C 193.85 698.088 190.839 701.099 190.839 704.808C 190.839 708.517 193.85 711.528 197.559 711.528C 201.268 711.528 204.279 708.517 204.279 704.808z"/>
<path style="stroke:#000000; stroke-width:0.850394; stroke-linejoin:round; stroke-linecap:round; fill:none" d="M 204.279 773.349C 204.279 769.64 201.268 766.629 197.559 766.629C 193.85 766.629 190.839 769.64 190.839 773.349C 190.839 777.058 193.85 780.069 197.559 780.069C 201.268 780.069 204.279 777.058 204.279 773.349z"/>
<path style="stroke:#000000; stroke-width:0.850394; stroke-linejoin:round; stroke-linecap:round; fill:none" d="M 448.875 636.267C 448.875 632.558 445.865 629.548 442.155 629.548C 438.446 629.548 435.436 632.558 435.436 636.267C 435.436 639.976 438.446 642.987 442.155 642.987C 445.865 642.987 448.875 639.976 448.875 636.267z"/>
<path style="stroke:#000000; stroke-width:0.850394; stroke-linejoin:round; stroke-linecap:round; fill:none" d="M 448.875 567.727C 448.875 564.017 445.865 561.007 442.155 561.007C 438.446 561.007 435.436 564.017 435.436 567.727C 435.436 571.436 438.446 574.446 442.155 574.446C 445.865 574.446 448.875 571.436 448.875 567.727z"/>
<path style="stroke:#000000; stroke-width:0.850394; stroke-linejoin:round; stroke-linecap:round; fill:none" d="M 448.875 704.808C 448.875 701.099 445.865 698.088 442.155 698.088C 438.446 698.088 435.436 701.099 435.436 704.808C 435.436 708.517 438.446 711.528 442.155 711.528C 445.865 711.528 448.875 708.517 448.875 704.808z"/>
<path style="stroke:#000000; stroke-width:0.850394; stroke-linejoin:round; stroke-linecap:round; fill:none" d="M 448.875 773.349C 448.875 769.64 445.865 766.629 442.155 766.629C 438.446 766.629 435.436 769.64 435.436 773.349C 435.436 777.058 438.446 780.069 442.155 780.069C 445.865 780.069 448.875 777.058 448.875 773.349z"/>
<path style="stroke:#000000; stroke-width:0.850394; stroke-linejoin:round; stroke-linecap:round; fill:none" d="M 121.626 294.603C 121.626 290.893 118.616 287.883 114.907 287.883C 111.198 287.883 108.187 290.893 108.187 294.603C 108.187 298.312 111.198 301.322 114.907 301.322C 118.616 301.322 121.626 298.312 121.626 294.603z"/>
<path style="stroke:#000000; stroke-width:0.850394; stroke-linejoin:round; stroke-linecap:round; fill:none" d="M 121.626 157.826C 121.626 154.117 118.616 151.106 114.907 151.106C 111.198 151.106 108.187 154.117 108.187 157.826C 108.187 161.535 111.198 164.545 114.907 164.545C 118.616 164.545 121.626 161.535 121.626 157.826z"/>
<path style="stroke:#000000; stroke-width:0.850394; stroke-linejoin:round; stroke-linecap:round; fill:none" d="M 121.626 431.012C 121.626 427.303 118.616 424.293 114.907 424.293C 111.198 424.293 108.187 427.303 108.187 431.012C 108.187 434.721 111.198 437.732 114.907 437.732C 118.616 437.732 121.626 434.721 121.626 431.012z"/>
<path style="stroke:#000000; stroke-width:0.850394; stroke-linejoin:round; stroke-linecap:round; fill:none" d="M 44.3499 214.907C 44.3499 211.198 41.3393 208.187 37.6303 208.187C 33.9212 208.187 30.9106 211.198 30.9106 214.907C 30.9106 218.616 33.9212 221.627 37.6303 221.627C 41.3393 221.627 44.3499 218.616 44.3499 214.907z"/>
<path style="stroke:#000000; stroke-width:0.850394; stroke-linejoin:round; stroke-linecap:round; fill:none" d="M 44.3499 340.529C 44.3499 336.82 41.3393 333.81 37.6303 333.81C 33.9212 333.81 30.9106 336.82 30.9106 340.529C 30.9106 344.238 33.9212 347.249 37.6303 347.249C 41.3393 347.249 44.3499 344.238 44.3499 340.529z"/>
<path style="stroke:#000000; stroke-width:0.850394; stroke-linejoin:round; stroke-linecap:round; fill:none" d="M 44.3499 466.152C 44.3499 462.443 41.3393 459.432 37.6303 459.432C 33.9212 459.432 30.9106 462.443 30.9106 466.152C 30.9106 469.861 33.9212 472.871 37.6303 472.871C 41.3393 472.871 44.3499 469.861 44.3499 466.152z"/>
<path style="stroke:#000000; stroke-width:0.850394; stroke-linejoin:round; stroke-linecap:round; fill:none" d="M 44.3499 591.774C 44.3499 588.065 41.3393 585.054 37.6303 585.054C 33.9212 585.054 30.9106 588.065 30.9106 591.774C 30.9106 595.483 33.9212 598.494 37.6303 598.494C 41.3393 598.494 44.3499 595.483 44.3499 591.774z"/>
<path style="stroke:#000000; stroke-width:0.850394; stroke-linejoin:round; stroke-linecap:round; fill:none" d="M 44.3499 717.396C 44.3499 713.687 41.3393 710.677 37.6303 710.677C 33.9212 710.677 30.9106 713.687 30.9106 717.396C 30.9106 721.106 33.9212 724.116 37.6303 724.116C 41.3393 724.116 44.3499 721.106 44.3499 717.396z"/>
</g>
</svg>